<?xml version="1.0" encoding="UTF-8" standalone="no"?>
<!-- Created with Inkscape (http://www.inkscape.org/) -->

<svg
   xmlns:dc="http://purl.org/dc/elements/1.1/"
   xmlns:cc="http://creativecommons.org/ns#"
   xmlns:rdf="http://www.w3.org/1999/02/22-rdf-syntax-ns#"
   xmlns:svg="http://www.w3.org/2000/svg"
   xmlns="http://www.w3.org/2000/svg"
   xmlns:sodipodi="http://sodipodi.sourceforge.net/DTD/sodipodi-0.dtd"
   xmlns:inkscape="http://www.inkscape.org/namespaces/inkscape"
   width="40mm"
   height="270mm"
   viewBox="0 0 40 270"
   version="1.1"
   id="svg8"
   sodipodi:docname="organiclinesnarrow.svg"
   inkscape:version="0.92.5 (2060ec1f9f, 2020-04-08)">
  <defs
     id="defs2" />
  <sodipodi:namedview
     id="base"
     pagecolor="#ffffff"
     bordercolor="#666666"
     borderopacity="1.0"
     inkscape:pageopacity="0.0"
     inkscape:pageshadow="2"
     inkscape:zoom="0.7"
     inkscape:cx="109.56545"
     inkscape:cy="565.56619"
     inkscape:document-units="mm"
     inkscape:current-layer="g1033"
     showgrid="false"
     inkscape:window-width="1854"
     inkscape:window-height="1016"
     inkscape:window-x="66"
     inkscape:window-y="27"
     inkscape:window-maximized="1" />
  <metadata
     id="metadata5">
    <rdf:RDF>
      <cc:Work
         rdf:about="">
        <dc:format>image/svg+xml</dc:format>
        <dc:type
           rdf:resource="http://purl.org/dc/dcmitype/StillImage" />
        <dc:title></dc:title>
      </cc:Work>
    </rdf:RDF>
  </metadata>
  <g
     inkscape:label="Layer 1"
     inkscape:groupmode="layer"
     id="layer1"
     transform="translate(0,-27)">
    <g
       id="g826"
       transform="translate(1.4055986,0.679176)">
      <g
         id="g1033"
         transform="matrix(-0.10407916,0,0,-0.10407916,190.93792,378.82719)"
         style="fill:#ffaa00;fill-opacity:0.62189056">
        <path
           style="fill:#01030d;fill-opacity:0.1;stroke-width:3.8484025"
           d="m 1856.4321,3386.0912 c -3.3588,-1.0691 -6.8714,-2.1721 -10.6811,-3.3382 -31.8532,-7.7962 -84.6321,-64.6791 -111.3833,-38.9377 9.3046,16.3505 40.6815,31.2035 73.62,42.2759 z m -218.696,0 c -24.5235,-72.7439 53.7311,-98.5652 -27.8805,-108.0912 -14.1321,-54.993 -61.4785,-89.2462 -61.5732,-68.9292 -0.038,8.2605 7.7341,25.5427 28.7249,54.1181 24.1759,35.4581 44.6015,87.9921 43.8197,122.9023 z m -152.795,0 c -19.4293,-7.5769 -40.9996,-17.7874 -62.4507,-29.2791 v 29.2791 z m 227.1275,-36.2657 c 18.8357,0.5995 4.6854,-44.0716 -18.6046,-9.1835 8.1529,6.4939 14.2578,9.0452 18.6046,9.1835 z m -127.0389,-8.9724 c 28.3359,-18.5157 -71.312,-46.0072 -162.5393,-67.5108 v 1.6691 c 57.9185,21.9922 129.5335,42.5939 162.5393,65.8417 z m 271.4024,-35.6653 v -14.5934 c -6.7093,0.3324 -13.9471,0.8474 -21.8307,1.59 7.3015,5.4756 14.6497,9.7243 21.8307,13.0034 z m -106.6398,-22.7609 c 53.4786,0.5653 102.0801,-14.8612 0.917,-18.024 -13.9478,-3.9672 -44.8833,-5.8598 -50.6545,11.0835 13.5425,4.7903 31.9113,6.752 49.7375,6.9405 z m -122.5856,-29.9587 c 29.6651,-2.0769 16.5185,-61.4699 -15.4049,-3.1337 6.0554,2.5528 11.167,3.4304 15.4049,3.1337 z m -158.825,-0.1913 c 64.8611,-34.5285 126.4791,-113.7934 203.6936,-158.185 121.6234,-72.6707 -176.9763,-21.3841 -4.2948,-24.0474 -50.0096,63.404 -161.5453,85.7008 -180.1807,146.7056 l -13.4124,15.9722 z m 203.8256,-31.6014 c 64.3929,-2.2554 57.3301,-72.604 -13.8281,-0.5212 4.9303,0.5173 9.5352,0.6716 13.8281,0.5212 z m 165.7984,-12.5416 c 20.8076,-1.4229 -8.0065,-43.9221 -23.1106,-7.0592 10.8653,5.5265 18.3088,7.3876 23.1106,7.0592 z m 18.4264,-0.5871 v -10.8263 c -1.7209,1.9817 -3.474,4.3624 -5.2383,7.2175 1.8416,1.3534 3.5673,2.5238 5.2383,3.6088 z m -91.103,-2.573 c 26.3537,1.4197 6.6679,-43.5366 -26.0068,-9.929 11.3914,6.8022 19.9252,9.6014 26.0068,9.929 z m -176.1496,-3.5956 c 64.9704,-4.8713 188.7436,-115.6414 40.6727,-45.7725 -4.1672,22.2613 -36.6892,23.4945 -40.6727,45.7725 z m -166.6891,-7.5408 c 13.9032,-5.0333 12.3883,-23.4688 0,-26.0134 z m 416.7424,-53.9532 c 6.6983,-0.048 12.4045,-0.9122 17.1993,-2.1969 v -19.3303 c -12.7561,-1.0845 -33.8184,1.3756 -65.1556,11.0374 18.6113,7.8001 34.9454,10.5838 47.9563,10.4898 z m -385.4247,-11.5652 c 14.4045,-1.3195 6.6643,-42.0372 -17.4368,-10.6085 7.632,8.2563 13.4036,10.978 17.4368,10.6085 z m 49.9817,-5.8584 c 30.3984,0.5322 13.361,-39.5052 -28.8965,-8.227 12.3404,5.8186 21.8814,8.1041 28.8965,8.227 z m -81.2994,-1.214 c 0.955,-1.0897 1.0383,-2.0491 0,-2.817 z m 0,-47.8902 c 52.6373,-24.3247 81.4783,-46.9616 0,-20.3001 z m 131.5053,-12.8979 c 36.2726,-0.5773 47.0634,-21.4034 -32.2545,-24.7929 -5.0731,-0.1101 -26.5083,-3.2158 -26.9304,8.8999 h -0.01 v 0.5871 c 20.9483,11.647 42.7042,15.5684 59.1917,15.3059 z m 196.5619,-2.8962 c 10.5757,-0.4498 7.3442,-46.482 -14.9826,-19.1522 6.3975,14.3837 11.4574,19.3021 14.9826,19.1522 z m -32.5118,-6.3929 c 10.2068,-0.097 6.5304,-16.5506 -29.5826,-55.8203 -89.1859,-45.9591 -44.9555,-292.4337 8.8735,-247.8168 7.2249,51.8834 -69.3577,299.0315 0.1187,133.4119 -1.4353,-16.1411 1.0339,-42.237 6.03,-69.7539 0.8723,1.9328 2.6594,3.1814 2.1244,-2.441 -0.6744,-0.3513 -1.1888,-0.5082 -1.5768,-0.5146 13.3556,-71.2455 43.2528,-149.9506 66.2507,-89.6384 -52.3367,93.002 -38.8406,241.4918 -51.7959,262.8522 57.5655,-73.8902 22.2815,-333.3796 137.0207,-291.2935 -67.4478,97.4505 -57.6926,229.0502 -100.247,332.659 73.9285,26.6067 27.3063,-151.2613 76.767,-226.5997 3.5779,-28.6563 13.5008,-51.4046 24.4036,-66.6004 v -46.8809 c -0.831,-0.7366 -1.395,-1.8157 -1.3459,-3.0018 0.038,-0.9145 0.4584,-1.8712 1.3459,-2.7445 v -14.0458 c -51.7952,-15.3124 -107.8853,-39.1282 -163.6806,-53.8939 -136.1455,-56.4013 96.46,-91.8691 163.6806,-47.3624 v -27.6166 c -46.6604,3.8735 -116.3244,-29.2362 -165.6005,-5.2647 -48.1213,13.0075 -48.8189,-3.7592 -58.7429,-47.0392 64.0569,3.3865 168.4748,-38.1832 224.3434,-12.1524 v -91.611 c -41.2252,-6.0509 -80.7032,-21.1688 -47.468,-75.962 15.4249,-2.9452 31.916,-6.7559 47.468,-10.8395 v -25.512 c -1.4782,0.1608 -2.7668,0.281 -4.3081,0.4552 -68.0888,-10.9717 -37.1229,-38.6992 4.3081,-58.8485 v -32.591 c -21.8134,30.2489 -75.1979,39.9092 -121.22,-1.9594 -43.3043,-32.9122 -94.424,-59.5016 -138.5446,-87.5932 27.1599,-88.4491 263.283,139.3037 252.2502,61.9427 -78.3758,-62.8756 -234.7808,-65.0917 -247.1109,-174.1837 47.5392,25.0982 199.8688,35.1477 225.3528,104.6475 13.3709,10.645 22.9181,21.5512 29.2725,32.2611 v -31.4035 c -17.7285,-50.1427 -28.3868,-104.2216 -74.1016,-128.1142 23.4033,-1.3493 50.0963,-8.0112 74.1016,-16.5132 v -28.1048 c -55.6885,40.6093 -155.7674,-8.3992 -150.9411,20.9202 -60.9911,-71.0916 -160.9909,-88.7151 -144.4361,27.6034 -33.0633,64.6077 -73.4375,-9.5662 -83.6678,49.8497 -5.3405,-8.3862 -29.0477,-3.9821 -54.8967,0.9962 v 28.626 c 60.534,-25.9133 133.9333,149.4601 87.0589,22.7345 -14.0894,-89.2642 113.3751,116.762 -25.5714,51.2615 76.5125,92.6351 -25.9066,30.1831 -61.4875,-29.3055 v 18.1494 c 45.9675,44.8045 29.332,98.2552 0,133.3459 v 45.0072 c 25.4896,-2.8187 45.4093,5.6374 25.8419,57.9909 35.479,117.6682 -5.6522,-184.5842 59.1454,-15.3587 -24.3475,107.731 29.4842,121.4438 91.3999,130.1396 41.7686,129.6311 -143.8558,-47.3829 -126.4121,28.4742 -71.7973,51.8138 153.7117,0.2892 146.3229,60.0822 74.0582,134.9608 -108.9511,-9.85 -167.7314,2.2497 2.2117,-44.8109 -8.697,-14.7776 -28.5666,17.2258 v 31.377 c 0.3115,-1.3495 1.5031,-3.0149 4.3015,-4.8952 4.7534,9.0981 -3.205,9.7088 -4.3015,6.373 v 58.9079 c 58.5734,-8.4911 178.4825,193.2864 136.5919,157.367 58.0951,51.946 -82.449,-54.1878 -27.4649,27.1745 -29.6263,-32.1089 -67.0785,-94.382 -109.127,-141.1177 v 43.7934 c 48.868,54.5602 101.7119,106.5047 0,80.9364 v 18.565 c 78.8895,-11.1153 223.0881,54.4038 116.8526,86.8147 -45.2618,56.7741 135.5258,-54.0701 109.9648,63.1566 19.5502,40.2488 55.615,67.1664 68.738,67.0424 z m 124.7891,-9.4672 c 1.1895,0 2.4242,-0.071 3.7143,-0.2043 -2.3888,-40.1153 1.9437,-79.0813 9.8829,-117.3408 v -78.7329 c -17.3326,54.25 -37.9897,118.7767 -38.0668,158.825 -0.044,22.7825 6.6275,37.469 24.4696,37.4532 z m 13.5972,-16.401 v -0.2507 c -0.068,0.027 -0.1362,0.064 -0.2045,0.092 0.069,0.056 0.1357,0.1027 0.2045,0.1585 z m -433.9417,-58.5252 c 62.1866,-14.49 110.4757,-24.3752 75.6916,-37.13 -24.7933,3.5742 -50.4663,9.0679 -75.6916,16.3351 z m 179.5143,-98.5449 c -8.0249,0.3165 -17.4076,-6.5086 -27.7023,-24.7533 73.5677,-144.1912 66.3679,23.2275 27.7023,24.7533 z m 101.4741,-57.0606 c -0.5887,-1.3184 -0.7426,-2.9465 0.5476,-2.9358 -0.1838,0.9799 -0.3703,1.959 -0.5476,2.9358 z m -277.7161,-21.2303 c 1.5083,0.1439 0.591,-3.4061 -3.2723,-11.8357 v 9.7047 c 1.4787,1.2738 2.6178,2.0686 3.2723,2.131 z m 176.2222,-14.7583 c -43.5449,-25.0352 -119.6773,-126.4616 -172.5144,-172.6003 60.8868,2.7051 257.7848,215.2305 164.9209,83.1334 -53.263,-51.8294 -252.8249,-151.8142 -66.5212,-105.6172 102.9248,6.4512 200.7341,126.178 74.1147,195.0841 z m -68.3816,-45.027 c -2.48,0.027 -4.9202,-0.9907 -4.8887,-2.9293 0.03,-1.5826 1.7012,-3.7787 6.3467,-6.5182 6.9189,6.4475 2.6752,9.4012 -1.458,9.4475 z M 1682.928,2701.74 c 41.2886,-54.4302 1.1943,-39.4629 -2.0056,-71.3043 95.6652,2.3773 91.8183,55.9736 2.0056,71.3043 z m -39.9404,-151.0467 c -0.8936,-0.082 -1.3448,-2.3596 -1.2931,-4.2553 0.073,-2.6762 1.1404,-4.5961 3.3646,1.4778 -0.8441,2.0849 -1.5354,2.827 -2.0715,2.7775 z m -220.4906,-6.2609 c 6.9305,-2.8158 5.666,-8.6936 -0.01,-14.2503 v 14.2503 c 0,-7e-4 0,8e-4 0.01,0 z m 210.7397,-9.421 c -1.5373,0.059 -2.767,-0.5269 -2.8171,-2.1969 -0.028,-0.9542 0.3271,-2.2616 1.2337,-4.0046 13.5556,0.027 6.1952,6.0228 1.5834,6.2015 z m -194.6685,-65.2479 c 15.7645,0.5529 4.6496,-43.438 -15.4246,-9.012 6.7217,6.3828 11.7867,8.8844 15.4246,9.012 z m 209.2288,-8.0884 c -21.2743,0.3374 -36.309,-7.279 -35.8962,-33.5872 0,-0.5522 0.022,-1.1132 0.046,-1.6823 42.8471,-139.3721 371.5893,25.9444 151.6008,16.975 -27.5005,-4.9326 -80.2936,17.7322 -115.7508,18.2945 z m 123.9711,-1.8868 c -2.4419,0.05 -7.0274,-4.6056 -7.1515,-8.0026 -0.073,-2.013 1.4248,-3.5857 5.8584,-3.4702 3.8002,8.5453 3.1924,11.4335 1.2931,11.4728 z m -228.8164,-43.0413 c -5.8126,0.1338 -11.2481,-15.9259 -13.2211,-59.528 7.6807,-8.5172 -3.7075,-38.2756 -3.3449,-55.2265 0.2314,-10.866 5.293,-16.4634 23.2953,-7.8377 22.9254,31.1359 7.0375,122.2752 -6.7293,122.5922 z m -79.0364,-2.1111 c 11.1486,0.1837 22.0131,-55.9124 -10.6284,-34.1084 1.8599,25.3462 6.2659,34.0365 10.6284,34.1084 z m 125.7919,-6.3467 c -3.7375,-0.076 -8.6878,-2.818 -15.4048,-9.2495 -0.8857,-5.2061 -1.2909,-10.8362 -1.2997,-16.6847 -0.085,-56.5336 37.2529,-133.2792 43.1996,-40.8905 -16.7773,17.3407 -10.2991,67.1532 -26.4951,66.8247 z m 72.5645,-38.1459 c -1.7804,-0.1321 -3.5747,-0.7743 -3.556,-1.7483 0.013,-0.7274 1.0386,-1.6417 3.8396,-2.6654 5.6069,3.4357 2.6836,4.6339 -0.2836,4.4137 z m -27.6826,-4.5324 c -1.4487,-6.4619 -2.0789,-12.4786 -1.9858,-18.0636 1.7389,-104.3953 255.5432,-59.0735 115.1702,5.6473 -39.0177,-0.2911 -76.4535,-2.1533 -113.1844,12.4163 z m 95.7476,-3.622 c -3.0736,0.1773 -7.5377,-2.5141 -7.3561,-4.6643 0.1262,-1.4958 2.4988,-2.7332 9.1572,-2.5598 2.1364,5.2097 0.5894,7.0863 -1.8011,7.2241 z m 121.8401,-4.8292 c 1.4059,0 2.8335,-0.095 4.2553,-0.1585 v -24.0341 c -15.2865,1.2316 -35.7873,-3.8004 -40.3693,13.2672 9.0207,7.9456 22.0944,10.9618 36.114,10.9253 z m -253.9787,-79.7226 c -35.7173,-35.5535 -81.4158,21.5306 -97.133,-62.1538 -19.9779,41.4589 32.5754,57.7983 -46.8809,29.3913 -0.5511,-5.427 -0.7891,-10.5344 -0.7455,-15.3389 1.3524,-148.9405 277.5477,-4.984 144.7594,48.1014 z m 54.2105,-0.4354 c -2.8761,0.034 -5.676,0.014 -8.3787,-0.073 41.7799,-127.7626 241.3656,5.6729 71.4297,-8.2929 -19.1269,4.9926 -42.9181,8.1241 -63.051,8.3654 z m 32.3601,-61.5534 c -8.7304,-0.082 -19.5317,-1.2601 -32.6636,-3.7737 -28.9948,-25.5724 -61.8899,-47.3024 -88.8071,-75.6388 39.4486,-71.9342 224.4895,80.3805 121.4707,79.4125 z m 141.9225,-1.148 c -1.3592,-0.1344 -2.4155,-1.2912 -2.3487,-4.1233 0.028,-1.172 0.2495,-2.6336 0.7191,-4.4269 12.5229,0.1757 5.707,8.9538 1.6296,8.5502 z m -281.8922,-73.8047 c -2.3103,0.331 -4.9518,-1.1546 -4.8887,-3.0414 0.053,-1.5933 2.0343,-3.472 7.7783,-4.7963 1.3967,5.3626 -0.5794,7.5067 -2.8896,7.8377 z m 232.4581,-9.6981 c -1.4541,-0.1679 -2.6298,-2.6809 -2.6653,-9.4672 13.8953,-10.603 7.0276,9.9711 2.6653,9.4672 z m -195.1368,-36.6748 -3.8463,-0.1979 3.3317,-0.9633 z m -13.2805,-28.1707 c 0,-0.2297 0.8047,-3.2903 2.7973,-9.9555 -1.5707,6.2288 -2.7935,10.2428 -2.7973,9.9555 z m 3.9188,-14.5538 c -12.3454,-11.4793 -32.0116,-15.2323 -37.7171,-38.0734 55.0705,-57.1015 44.9608,7.2983 37.7171,38.0734 z m 220.0221,-35.507 c -57.9499,-29.3852 -180.0783,-37.8965 -196.9181,-101.7644 42.8931,-33.1728 183.6926,75.3473 196.9181,101.7644 z m -254.6517,-17.0278 c -1.465,-0.1419 -2.8126,-1.4426 -2.7181,-4.8887 0,-0.1753 0.019,-0.3548 0.026,-0.541 9.7114,0.4423 5.9147,5.7421 2.6917,5.4297 z m -115.6386,-37.572 c 21.9162,-12.4645 39.1041,-37.3804 0,-61.9691 v 49.4473 c 3.5809,0.4398 2.4888,2.9213 0,3.7539 z m 82.3813,-87.8505 c 9.4128,-0.469 20.3842,-7.7308 33.607,-24.1068 -0.9858,-0.895 -2.0834,-2.0417 -3.3053,-3.49 3.4363,-5.1435 6.3896,-4.9287 8.2599,-2.9358 5.6825,-7.6843 11.7563,-16.9496 18.2813,-27.9926 -12.7094,-56.7476 -44.3099,-40.4469 -55.8335,-21.6526 6.8715,-0.28 -1.7155,11.4187 -4.0771,10.1863 -1.68,10.3286 6.3209,16.9307 32.2677,4.8491 -37.8007,124.4923 -114.8429,-88.5277 -20.1814,-93.6892 0.5919,-1.8208 2.7824,-2.5461 7.7322,-0.231 -10e-4,0.091 0.014,0.1739 0.014,0.2638 0.2901,0.017 0.5846,0.034 0.8774,0.053 2.1344,4.3872 6.4449,8.0856 6.8481,0.7653 -2.3604,-0.3559 -4.6401,-0.6121 -6.8415,-0.7653 -0.628,-1.2906 -1.0735,-2.6347 -1.1677,-3.7803 -51.9648,-4.6377 -83.5573,-51.9802 -98.8615,-73.4221 v 64.7004 c 32.0399,66.5576 44.7653,173.1221 82.3813,171.2478 z m 16.4803,-162.5261 c 2.5839,0.2304 5.219,0.3525 7.9036,0.3629 -0.034,-0.4003 -0.078,-0.8126 -0.1253,-1.2469 -6.1784,-3.503 -8.009,-1.9209 -7.7783,0.884 z m 7.9036,0.3629 c 0.1449,1.6809 0.1672,3.0588 0.1054,4.1827 4.1198,0.6212 8.4886,1.5563 13.1089,2.8368 111.6941,-21.0804 112.2795,130.0401 54.0194,102.4043 65.9976,91.2717 96.1123,-99.1338 25.3207,-121.3387 88.2124,-13.2758 137.7215,215.261 234.6221,137.4363 v -27.1283 c -3.3432,3.2445 -7.5345,5.7897 -12.7197,7.3692 -108.2845,36.1192 -192.3633,-164.8009 -63.4403,-155.302 20.5791,-12.9208 48.8374,-31.285 76.16,-47.976 v -34.2403 c -50.8684,22.5976 -87.3551,76.2606 -90.8721,-26.5742 -40.2252,-68.4686 -83.1216,-36.5795 -101.4939,-2.2629 0.1573,4.0887 -1.3216,10.5972 -3.5823,7.4088 -12.605,29.2893 -5.7326,55.1829 37.7699,15.9459 -46.2505,-92.3161 141.627,56.5539 21.9296,87.3425 -44.8962,-3.3588 -178.202,9.9278 -120.072,26.1717 -26.736,17.1702 -50.281,23.8031 -70.8557,23.7242 z m 131.2282,-153.1843 c 1.0577,-2.4581 2.2605,-4.9393 3.5823,-7.4088 -0.1427,-3.7136 -1.6293,-5.4271 -5.1063,3.9782 0.5397,1.6557 1.0462,2.7567 1.524,3.4306 z m -138.8482,156.5489 c -2.7014,-0.1567 -5.2803,-0.1682 -7.7453,-0.034 -1.6034,4.9316 8.565,17.8692 7.7453,0.034 z m -19.8316,88.8071 c 0.5186,-3.1871 1.957,-6.7285 4.0771,-10.1863 -0.6399,0.027 -1.4094,0.155 -2.3355,0.409 -2.6316,6.5902 -2.7111,9.2716 -1.7416,9.7773 z m 41.6293,39.4589 c -1.6844,2.2777 -3.3386,4.4246 -4.9546,6.4258 8.1574,7.4066 8.4781,-2.6719 4.9546,-6.4258 z m 267.6815,-54.7318 c 12.456,-0.1662 -44.7162,-32.955 -21.9098,-46.3333 20.3997,-51.274 51.1903,-33.7659 67.2271,-2.6059 v -41.2006 c -54.9454,-23.5675 -135.0869,7.2519 -66.9039,84.4067 12.1291,4.0756 18.7121,5.7715 21.5866,5.7331 z m -4.3147,-8.8734 1.9462,-5.113 z m -90.9117,-98.0633 c -1.499,0.064 -3.1285,-1.4481 -3.1073,-3.6351 0.017,-1.808 1.1634,-4.0767 4.4466,-6.3071 2.2981,7.1791 0.588,9.8603 -1.3393,9.9422 z m -243.3635,-37.0771 c 98.0897,-0.1774 168.2886,-130.9605 30.7898,-161.8796 -154.2779,-2.3747 20.2724,143.0991 -38.9772,40.2637 86.5708,-75.9227 132.8471,146.8582 -8.814,81.0882 -11.1594,0.098 -22.1555,0.5777 -33.0331,1.3657 v 27.5308 c 16.8989,8.121 33.8466,11.6604 50.0345,11.6312 z m 55.4706,-19.4755 c -1.8821,-0.1101 -4.1697,-2.9522 -4.0706,-4.9678 0.081,-1.6287 1.7171,-2.7182 6.3995,-1.3986 0.3511,4.8858 -0.8651,6.4522 -2.3289,6.3664 z m 319.3058,-24.3245 c -0.9505,0.059 -2.1536,-1.8414 -2.1705,-3.0083 -0.013,-0.978 0.8037,-1.4374 3.2987,0.2043 -0.08,2.0302 -0.5578,2.7684 -1.1282,2.8039 z m -20.7553,-100.0556 c 10.7105,-0.039 20.8067,-3.0372 29.8861,-8.0026 v -21.9758 c -26.8263,3.5479 -74.1213,-26.9417 -88.7346,-0.8643 19.6193,22.1467 40.111,30.9116 58.8485,30.8427 z m -176.0374,-8.7481 c 24.9002,0.081 42.5951,-15.9753 44.4266,-65.9472 -35.1282,-79.2108 -101.1368,28.1423 -25.3471,1.5305 -12.6027,137.3421 -119.201,-86.6847 -180.24,11.2024 29.1642,-4.3294 76.5344,26.0962 118.4821,42.7773 -0.3365,-0.1689 -0.547,-0.71 -0.5542,-1.7681 0,-0.2729 0,-0.5862 0.04,-0.9302 11.4268,-13.2536 2.8699,3.8797 0.5146,2.6983 15.3325,6.0972 29.9539,10.3957 42.6784,10.437 z m 205.9235,-75.2693 v -43.8065 c -11.3882,-4.0595 -25.3794,-6.5326 -42.4145,-6.7689 -7.7641,-39.2488 14.6041,-48.1372 42.4145,-46.4982 v -28.3951 c -44.1076,-0.4505 -66.3559,26.8906 -66.3893,56.3745 -0.033,29.3742 21.9966,60.846 66.3893,69.0942 z m -433.9417,-8.8207 c 49.9814,-15.6798 80.6292,-85.4779 118.8714,-123.5686 61.3933,7.6166 122.8683,-1.2921 61.5534,-28.4742 78.6782,0.3709 131.9344,-27.2822 180.3653,-72.162 14.0523,30.1467 43.495,36.6929 73.1516,32.083 v -31.4563 c -59.5007,-6.2148 -133.6381,-61.3881 -158.3302,41.504 -88.6501,-18.2572 -196.8063,33.7593 -234.9321,118.205 -6.1717,34.4509 -22.2629,41.1626 -40.6794,39.4325 z m 133.5109,-27.1217 c 40.6353,-8.2496 77.7637,-64.171 142.325,-15.3191 97.5479,-22.3163 8.3202,-163.4928 10.5821,-25.9541 -48.7879,-10.7774 -135.0503,-53.2029 -152.9071,41.2732 z m 37.4467,-38.8585 c -3.083,0.1395 -7.8173,-3.4629 -7.7717,-5.5023 0.033,-1.483 2.5962,-2.1395 10.1533,0.066 0.7243,3.9205 -0.5319,5.3525 -2.3816,5.4362 z m 129.2159,-29.101 c -1.1129,-0.042 -1.8867,-0.4843 -1.8934,-1.5438 -0.013,-0.5845 0.2307,-1.3566 0.7653,-2.3553 17.1564,-3.2158 5.9509,4.0809 1.1281,3.8991 z m -300.1735,-17.615 c 57.1508,-36.1828 113.5058,-126.6421 50.6414,-94.461 -12.2327,12.5688 -32.3192,36.016 -50.6414,54.2963 z m 203.753,-118.1126 c 88.5359,0.4771 165.0332,-85.9913 44.2024,-151.2841 -104.8542,-2.5509 0.8643,152.224 -9.454,24.5487 118.5371,60.6378 -25.1093,157.205 -93.5309,68.4015 -50.5074,-6.3118 -99.0764,-0.6751 -144.9705,13.3531 v 27.577 c 35.1197,-17.0623 71.7233,-29.0233 111.7264,-22.3519 26.4041,28.0391 60.003,39.5831 92.0266,39.7557 z m 226.5536,-65.7361 c 1.22,0.01 2.421,-0.068 3.6351,-0.092 v -28.0718 c -28.0654,0.8525 -53.652,-9.218 -86.63,-37.7237 -0.7708,-0.2946 -13.8561,3.1402 -13.8149,8.7349 0.013,0.4742 0.1028,0.9669 0.3101,1.4712 17.774,38.9706 58.3865,55.4117 96.4997,55.6817 z m -365.4083,-17.9844 c 4.3301,0.5814 12.5123,-8.6054 27.8079,-33.6994 -1.6598,-55.1378 -36.7866,-163.4108 -92.7062,-135.11397 V 1092.214 c 29.3128,-67.6506 7.4882,-222.90113 57.628,-79.4653 6.8743,30.3676 -2.2558,78.9118 7.2703,80.191 z m 72.8811,-58.1097 c 44.4616,-1.9363 7.9323,-169.95988 -70.4203,-163.06035 3.4674,-26.61743 1.9785,-59.04382 -1.7746,-83.14661 l -23.7308,-0.22429 c -1.1102,8.9229 -2.1023,19.75175 -2.9292,32.77569 -11.6255,68.14817 -26.3935,10.73866 -38.9245,-33.18475 v 85.07962 c 54.3008,47.40405 167.8164,49.04575 113.6462,151.42929 9.7716,7.4967 17.7815,10.6081 24.1332,10.3314 z m -1.2403,-23.9682 c -1.0701,-0.066 -2.2151,-1.3076 -2.6323,-4.8226 6.9718,-0.5628 4.9866,4.968 2.6323,4.8226 z m 270.1885,-15.73463 c 9.0148,-0.0338 18.1963,-1.1054 27.2141,-2.85006 v -19.10597 c -34.049,-0.90777 -74.6318,-51.54486 -96.0114,-17.07399 13.9821,29.30339 40.5218,39.13551 68.7973,39.03002 z m -269.1791,-24.76651 c -0.6325,0.0537 -1.1296,-0.23881 -1.1545,-1.06219 -0.023,-0.76002 0.3587,-1.97 1.4052,-3.78029 4.7637,1.40626 1.6467,4.68116 -0.2507,4.84248 z m 74.029,-36.38448 c 22.3884,0.85963 54.0303,-124.60871 127.6458,-108.55963 37.5893,0.33542 59.6792,-16.77978 69.4241,-33.46842 l -37.4796,-0.36285 c -1.1023,1.60884 -2.2207,3.27716 -3.3581,5.03378 -71.2789,17.08966 -166.473,25.57543 -167.9293,122.18317 3.7191,10.52478 7.5511,15.01478 11.6971,15.17395 z m 1.0952,-3.08097 c -0.346,-0.0476 -0.5676,-0.20402 -0.5872,-0.508 -0.033,-0.50465 0.4855,-1.41123 1.8803,-2.87644 9.7831,-1.37262 1.1287,3.71891 -1.2931,3.38444 z m 35.2629,-12.35686 c 29.5529,1.20823 92.7506,-54.25946 168.7078,-17.69412 5.9379,0.43959 11.7088,0.53174 17.2983,0.36285 v -26.97664 c -61.8584,2.31917 -174.5907,-47.80253 -186.0061,44.30791 z m -98.7757,-23.89565 c 9.9707,1.20933 7.045,-15.43631 -25.1558,-61.19055 -5.3924,-9.80735 -4.0364,-27.63676 -1.6691,-44.27494 l -26.8183,-0.26381 c -1.8414,2.89641 -3.7716,5.96397 -5.8189,9.24292 l -8.1279,27.22071 c 20.6326,36.64201 54.7704,67.71081 67.59,69.26567 z m 21.1379,-53.21433 c 10.9574,0.38349 17.7396,-22.73793 9.1638,-51.70358 l -37.0904,-0.35622 c 0.013,0.0689 0.021,0.13579 0.033,0.20436 8.3233,37.04431 19.3712,51.55701 27.8936,51.85531 z m 50.3709,-35.13758 c 15.5172,-0.33711 30.4784,-7.11916 42.3089,-15.7545 l -67.214,-0.65314 c -1.8338,3.07935 -2.9555,6.20484 -3.0743,9.05818 9.1558,5.43425 18.6691,7.55166 27.9794,7.34946 z"
           id="path1037"
           inkscape:connector-curvature="0" />
      </g>
    </g>
  </g>
</svg>
